<?xml version="1.0" standalone="no"?><!DOCTYPE svg PUBLIC "-//W3C//DTD SVG 1.1//EN" "http://www.w3.org/Graphics/SVG/1.1/DTD/svg11.dtd"><svg t="1643870079685" class="icon" viewBox="0 0 1024 1024" version="1.1" xmlns="http://www.w3.org/2000/svg" p-id="1249" xmlns:xlink="http://www.w3.org/1999/xlink" width="24" height="24"><defs><style type="text/css"></style></defs><path d="M843.093333 815.36l-189.44-294.826667a85.333333 85.333333 0 0 1-13.653333-46.08V170.666667h21.333333a21.333333 21.333333 0 0 0 21.333334-21.333334v-42.666666a21.333333 21.333333 0 0 0-21.333334-21.333334h-298.666666a21.333333 21.333333 0 0 0-21.333334 21.333334v42.666666a21.333333 21.333333 0 0 0 21.333334 21.333334H384v304.213333a85.333333 85.333333 0 0 1-13.653333 46.08l-189.44 294.826667a64.426667 64.426667 0 0 0 0 66.56l13.653333 24.32a64.853333 64.853333 0 0 0 55.466667 32h525.226666a64.853333 64.853333 0 0 0 55.466667-32l14.08-24.746667a63.573333 63.573333 0 0 0-1.706667-66.56z m-400.64-248.32a173.226667 173.226667 0 0 0 26.88-92.16V170.666667h85.333334v303.786666a167.68 167.68 0 0 0 27.306666 92.16L656.213333 682.666667H367.786667z" p-id="1250" fill="#8a8a8a"></path></svg>