<svg t="1637546666085" class="icon" viewBox="0 0 1024 1024" version="1.1" xmlns="http://www.w3.org/2000/svg" p-id="7574" xmlns:xlink="http://www.w3.org/1999/xlink" width="{{ .width }}" height="{{ .height }}"><defs><style type="text/css"></style></defs><path d="M363.386264 397.23621 636.770701 397.23621 636.770701 512.227174 363.386264 512.227174 363.386264 397.23621Z" p-id="7575"></path><path d="M511.997953 77.807087c-237.093906 0-429.297416 194.412828-429.297416 434.205193 0 239.790318 192.204533 434.180634 429.297416 434.180634 237.095953 0 429.30151-194.390315 429.30151-434.180634C941.299463 272.219915 749.09493 77.807087 511.997953 77.807087L511.997953 77.807087zM271.600815 236.248655l477.682403 0 0 43.99705L271.600815 280.245705 271.600815 236.248655 271.600815 236.248655zM705.857173 349.240079l0 206.984145L295.288307 556.224224l0-206.984145L705.857173 349.240079 705.857173 349.240079zM749.283218 743.207849l-501.368872 0 0-44.99682 157.177785 0c-13.669324-47.996131-31.487132-65.243957-53.620221-98.780771l53.620221-19.014052c21.284769 31.843242 40.263006 69.798692 57.06774 117.794823l101.443413 0c20.092617-47.996131 37.7293-78.17343 52.906977-120.279411l58.291614 23.978111c-15.230889 35.516912-31.697933 48.305169-49.123814 96.3013l123.607202 0 0 44.99682L749.283218 743.207849 749.283218 743.207849z" p-id="7576"></path></svg>